<svg width="81" height="81" viewBox="0 0 81 81" fill="none" xmlns="http://www.w3.org/2000/svg">
<path d="M45.5625 25.3125H50.625V30.375H45.5625V25.3125Z" fill="white"/>
<path d="M30.375 25.3125H35.4375V30.375H30.375V25.3125Z" fill="white"/>
<path d="M65.8125 50.625H53.1562V45.5625H55.6875C57.0297 45.5612 58.3166 45.0274 59.2658 44.0783C60.2149 43.1291 60.7487 41.8422 60.75 40.5V30.375H65.8125V25.3125H60.75V20.25C60.7487 18.9078 60.2149 17.6209 59.2658 16.6718C58.3166 15.7226 57.0297 15.1888 55.6875 15.1875H50.625V5.0625H45.5625V15.1875H35.4375V5.0625H30.375V15.1875H25.3125C23.9703 15.1888 22.6834 15.7226 21.7343 16.6718C20.7851 17.6209 20.2513 18.9078 20.25 20.25V25.3125H15.1875V30.375H20.25V40.5C20.2513 41.8422 20.7851 43.1291 21.7343 44.0783C22.6834 45.0274 23.9703 45.5612 25.3125 45.5625H27.8438V50.625H15.1875C13.8453 50.6263 12.5584 51.1601 11.6093 52.1092C10.6601 53.0584 10.1263 54.3453 10.125 55.6875V75.9375H15.1875V55.6875H65.8125V75.9375H70.875V55.6875C70.8737 54.3453 70.3399 53.0584 69.3908 52.1092C68.4416 51.1601 67.1547 50.6263 65.8125 50.625ZM25.3125 20.25H55.6875V40.5H25.3125V20.25ZM32.9062 45.5625H48.0938V50.625H32.9062V45.5625Z" fill="white"/>
</svg>
