<svg width="65" height="49" viewBox="0 0 65 49" fill="none" xmlns="http://www.w3.org/2000/svg">
<path d="M56.875 8.25V0.125H0V44.8125C0 45.8899 0.428012 46.9233 1.18988 47.6851C1.95175 48.447 2.98506 48.875 4.0625 48.875H58.9062C60.5224 48.875 62.0724 48.233 63.2152 47.0902C64.358 45.9474 65 44.3974 65 42.7812V8.25H56.875ZM52.8125 44.8125H4.0625V4.1875H52.8125V44.8125ZM8.125 12.3125H48.75V16.375H8.125V12.3125ZM32.5 20.4375H48.75V24.5H32.5V20.4375ZM32.5 28.5625H48.75V32.625H32.5V28.5625ZM32.5 36.6875H44.6875V40.75H32.5V36.6875ZM8.125 20.4375H28.4375V40.75H8.125V20.4375Z" fill="white"/>
</svg>
